<?xml version="1.0" encoding="UTF-8"?>
<svg id="Layer_2" data-name="Layer 2" xmlns="http://www.w3.org/2000/svg" viewBox="0 0 44.56 61.08">
  <defs>
    <style>
      .cls-1 {
        fill: #7f8f7a;
      }
    </style>
  </defs>
  <g id="Layer_1-2" data-name="Layer 1">
    <g>
      <path class="cls-1" d="M17.92,38.54c-.23,1.79-.65,3.55-1.27,5.23-.34.93-.75,1.83-1.22,2.71-.06-.21-.13-.42-.21-.63-.39-1-.98-1.91-1.68-2.67-.7-.77-1.51-1.41-2.34-1.97-.83-.56-1.68-1.04-2.53-1.51-1.7-.93-3.4-1.78-4.84-2.93-.72-.57-1.36-1.23-1.85-1.98-.49-.75-.82-1.6-.98-2.5-.35-1.8-.15-3.72.5-5.47.65-1.75,1.74-3.35,3.14-4.62,1.4-1.26,3.13-2.18,5.01-2.53.93-.18,1.9-.21,2.85-.09.95.11,1.88.37,2.77.74-.87-.41-1.8-.7-2.75-.85-.96-.15-1.94-.16-2.9-.01-1.93.28-3.76,1.16-5.26,2.42-1.51,1.25-2.71,2.88-3.47,4.71-.76,1.82-1.06,3.87-.75,5.86.15.99.48,1.99,1.01,2.87.53.88,1.23,1.64,1.98,2.3,1.53,1.31,3.26,2.25,4.9,3.23,1.63.97,3.23,1.99,4.37,3.34.57.67,1.01,1.42,1.29,2.23.28.81.4,1.68.4,2.56h0s.24,2.86.24,2.86l1.38-2.42c.94-1.66,1.68-3.43,2.2-5.25.52-1.82.81-3.69.9-5.56.18-3.74-.45-7.45-1.62-10.94.89,3.57,1.21,7.27.75,10.86Z"/>
      <path class="cls-1" d="M31.44,22.48l-.24-.33-.41.02h0c-.93.09-1.92.13-2.89.13-.97,0-1.95-.04-2.91-.15-.97-.11-1.93-.27-2.86-.54-.93-.27-1.85-.66-2.63-1.27.7.71,1.58,1.23,2.5,1.63.92.4,1.89.7,2.86.93.98.23,1.97.41,2.97.54.86.11,1.71.19,2.59.23,1.15,1.63,2.27,3.3,3.13,5.05.91,1.85,1.52,3.81,1.37,5.79-.07.99-.3,1.97-.64,2.94-.33.97-.77,1.92-1.25,2.86-.47.95-.99,1.86-1.51,2.81-.52.96-1.01,1.94-1.44,2.96-.43,1.02-.8,2.07-1.04,3.18-.24,1.1-.32,2.29-.06,3.47.14.59.37,1.16.7,1.67.33.51.75.95,1.21,1.32.46.37.96.67,1.47.92.26.13.52.24.78.34l.41.14c.14.04.28.08.42.12,1.13.28,2.37.23,3.46-.2,1.09-.42,2.02-1.17,2.69-2.08.68-.9,1.11-1.97,1.32-3.05.21-1.08.16-2.2-.07-3.25.07,1.07-.02,2.15-.33,3.15-.3,1-.8,1.93-1.47,2.7-.67.76-1.52,1.36-2.45,1.66-.93.3-1.94.31-2.88.04-.12-.04-.23-.07-.35-.11l-.34-.13c-.23-.1-.47-.21-.69-.32-.45-.23-.87-.5-1.24-.81-.37-.31-.69-.67-.93-1.07-.24-.4-.41-.84-.5-1.3-.19-.93-.1-1.93.14-2.92.23-.99.6-1.96,1.02-2.91.43-.95.91-1.89,1.44-2.8.53-.92,1.08-1.87,1.57-2.84.5-.97.98-1.97,1.35-3.03.38-1.05.66-2.17.76-3.33.04-.58.04-1.16,0-1.74-.06-.58-.15-1.15-.29-1.7-.28-1.11-.71-2.16-1.2-3.16-.99-1.99-2.23-3.8-3.52-5.55Z"/>
      <path class="cls-1" d="M21.72,50.46c.63.56,1.34,1.05,2.13,1.43.78.38,1.64.63,2.51.75h0l1.8.06-1.28-1.16c-.23-.21-.49-.48-.72-.73-.23-.26-.47-.53-.69-.81-.44-.56-.86-1.14-1.24-1.75-.38-.61-.74-1.24-1.05-1.89-.32-.65-.59-1.33-.84-2.01.14.71.31,1.43.53,2.13.21.71.48,1.4.77,2.08.29.68.63,1.34,1.01,1.99.13.22.26.44.4.66-.28-.06-.57-.13-.85-.22-.73-.23-1.44-.59-2.09-1.03-.66-.44-1.26-.98-1.81-1.56-.55-.59-1.05-1.24-1.46-1.95.32.76.73,1.47,1.21,2.15.48.68,1.03,1.31,1.66,1.87Z"/>
      <path class="cls-1" d="M40.46,56.91l-.26.3-.13.15s-.09.09-.14.14c-.19.18-.37.37-.58.52l-.3.24-.33.21c-.87.56-1.85.94-2.87,1.13-1.02.2-2.07.24-3.12.17-2.1-.16-4.16-.78-6.1-1.67-.97-.45-1.91-.97-2.82-1.56-.91-.58-1.78-1.24-2.64-1.93l-.16.15c.67.9,1.45,1.71,2.31,2.44.86.73,1.79,1.39,2.79,1.93,1.99,1.09,4.23,1.8,6.54,1.92,1.15.06,2.32-.03,3.46-.31,1.13-.28,2.22-.79,3.15-1.51.93-.72,1.67-1.66,2.15-2.7.48-1.04.72-2.16.76-3.27-.28,1.07-.67,2.1-1.25,3-.16.21-.3.44-.47.64Z"/>
      <path class="cls-1" d="M44.54,51.41c-.08-.5-.31-.89-.5-1.25-.09-.17-.2-.36-.26-.48-.03-.07-.05-.12-.05-.15,0-.04,0-.06,0-.13.02-.14.07-.4.09-.63.01-.24,0-.47-.02-.7-.02-.22-.06-.44-.11-.65-.05-.23-.13-.47-.23-.69-.22-.44-.57-.85-1.1-1.04-.26-.09-.59-.1-.86.05-.27.15-.42.41-.48.64-.07.23-.07.46-.04.68.03.22.08.42.16.62.02-.21.04-.41.09-.61.05-.19.11-.38.2-.52.09-.14.21-.23.32-.25.11-.02.22,0,.33.08.23.14.42.42.52.73.05.16.08.31.11.49.02.19.04.38.05.56,0,.18,0,.36-.01.53-.01.17-.05.31-.09.58-.01.06-.01.15-.02.23,0,.09,0,.17.03.25.03.17.09.3.16.42.13.24.25.39.38.56.25.32.52.61.69.89.08.14.14.28.16.45.01.17-.04.36-.12.57.2-.09.39-.24.51-.46.12-.23.15-.51.11-.76Z"/>
      <path class="cls-1" d="M27.4,16.56c-.44.22-.92.38-1.44.51.52.15,1.07.16,1.62.06.54-.1,1.1-.3,1.58-.73.23-.22.45-.52.53-.88.1-.36.04-.75-.07-1.06-.06-.16-.14-.3-.22-.44-.09-.14-.2-.28-.32-.4-.25-.24-.56-.42-.87-.51-.63-.19-1.25-.13-1.81.02-.56.16-1.07.42-1.52.76-.45.34-.83.76-1.1,1.24-.27.48-.43,1.02-.43,1.55.39-.98,1.13-1.68,1.97-2.13.42-.22.86-.39,1.31-.47.44-.08.89-.08,1.25.05.36.13.58.35.74.72.14.33.11.59-.13.92-.24.31-.65.59-1.08.8Z"/>
      <path class="cls-1" d="M6.48,17.62c.17.19.41.34.65.41.24.08.5.08.73.06.24-.03.47-.09.68-.17.44-.16.84-.38,1.21-.65-.4.22-.82.39-1.26.49-.43.1-.89.13-1.26-.04-.18-.08-.34-.2-.45-.36-.11-.16-.2-.35-.22-.52-.06-.36.15-.66.46-.87.32-.21.72-.34,1.13-.4.41-.07.84-.07,1.26-.05.84.06,1.68.27,2.48.56.11.29.27.56.47.78.49.53,1.12.79,1.72.95.61.15,1.22.22,1.82.22.6.01,1.2-.03,1.79-.1-.59-.06-1.18-.14-1.76-.24-.58-.11-1.14-.26-1.66-.47-.51-.22-.99-.52-1.26-.9-.28-.38-.34-.84-.23-1.32.05-.24.13-.48.24-.72.11-.24.25-.49.37-.65.27-.35.67-.56,1.12-.66.45-.1.96-.06,1.45.07.49.12.96.35,1.4.63.44.28.84.63,1.19,1.02.17.2.34.4.49.62.08.11.14.22.22.33l.02.03s.04.07.07.1c.05.06.11.12.18.18.14.1.31.17.48.19.34.03.68-.12.89-.4.1-.14.16-.31.18-.44l.02-.08.04-.17.02-.08.03-.08.06-.17c.03-.11.1-.22.15-.33.05-.11.12-.22.19-.32.27-.42.63-.83,1.03-1.19.41-.36.85-.69,1.32-.98.48-.28.97-.55,1.48-.77.51-.22,1.04-.42,1.58-.56.27-.08.54-.14.81-.2.27-.05.55-.11.82-.13.55-.08,1.1-.09,1.64-.06.54.03,1.07.13,1.56.31.49.18.95.41,1.31.75.37.34.67.74.91,1.2.2.46.38,1.01.47,1.54.09.53.11,1.07.04,1.59-.14,1.04-.73,1.97-1.59,2.63-.42.34-.92.6-1.43.81-.52.21-1.07.37-1.63.47-1.12.22-2.29.26-3.45.18-2.33-.16-4.64-.79-6.83-1.69,2.1,1.11,4.38,1.95,6.77,2.27,1.2.16,2.42.21,3.64.04.61-.08,1.22-.22,1.81-.43.59-.2,1.17-.48,1.7-.85.53-.37,1.01-.83,1.38-1.39.37-.55.63-1.19.74-1.84.12-.65.11-1.32.03-1.96l-.08-.48c-.03-.16-.08-.31-.11-.47-.07-.31-.2-.62-.31-.93-.28-.61-.67-1.19-1.17-1.65-.5-.48-1.11-.81-1.72-1.05-.62-.24-1.27-.38-1.91-.43-.64-.06-1.28-.05-1.91.02-1.17.12-2.3.42-3.37.85.25-.46.43-.97.49-1.51.07-.58.03-1.2-.2-1.79-.22-.6-.69-1.11-1.19-1.46-.51-.36-1.06-.58-1.56-.79-.25-.1-.5-.2-.72-.3-.22-.1-.42-.22-.61-.35-.38-.26-.69-.59-.97-.99-.28-.4-.51-.86-.77-1.34h0s-.44-1.11-.44-1.11l-.56,1.12c-.15.3-.28.56-.42.81-.14.25-.31.47-.49.69-.37.43-.82.82-1.31,1.18-.49.36-1.02.68-1.55,1-.27.16-.54.3-.84.48-.29.18-.58.37-.84.59-.54.43-1.01.97-1.35,1.6-.33.63-.49,1.36-.4,2.07.09.71.42,1.35.87,1.84.28.31.6.57.95.79-.28.21-.54.46-.73.76-.21.33-.32.61-.44.92-.1.27-.17.56-.22.86-.77-.15-1.56-.22-2.36-.18-.48.03-.97.09-1.44.23-.47.14-.94.34-1.35.69-.2.17-.38.39-.49.66-.11.26-.13.57-.05.84.08.27.22.49.39.68ZM12.48,11.17c-.34-.51-.53-1.1-.53-1.68,0-.58.19-1.13.5-1.61.32-.48.75-.88,1.24-1.22.24-.17.5-.32.77-.45l.86-.42c.59-.3,1.17-.62,1.72-1.01.55-.39,1.09-.84,1.54-1.39.18-.22.34-.46.48-.7.08.15.16.29.25.43.33.51.76.99,1.29,1.34.26.17.54.32.82.44.28.11.54.21.8.29.51.17.99.34,1.4.57.41.23.74.54.96.94.22.4.32.9.34,1.4.02.58-.1,1.18-.34,1.75-.49.22-.97.47-1.43.75-.54.33-1.06.7-1.54,1.13-.48.43-.93.92-1.3,1.49-.09.14-.19.28-.26.44-.04.09-.09.17-.13.26-.08-.09-.15-.18-.23-.27-.45-.48-.96-.91-1.53-1.26-.28-.18-.58-.32-.89-.45-.31-.13-.63-.23-.97-.3-.66-.14-1.38-.16-2.08.02-.33.08-.65.23-.94.42-.31-.28-.58-.58-.8-.91Z"/>
      <path class="cls-1" d="M26.85,42.33c.77.8,2.68.23,2.54-1.31-.14-1.54-2.71-.97-3.42-3.56,0,0-.57,1.65.68,2.73,0,0-.57,1.34.2,2.14Z"/>
      <path class="cls-1" d="M12.83,47.46c-.11-.35-.26-.68-.43-1-.18-.32-.37-.62-.59-.9-.22-.28-.46-.54-.7-.78-1-.96-2.14-1.68-3.28-2.32-1.15-.65-2.31-1.22-3.47-1.84,1.01.84,2.08,1.6,3.12,2.38,1.03.79,2.05,1.58,2.85,2.52.4.47.74.96.98,1.49.12.26.21.54.29.81.07.28.12.56.13.84.07,1.14-.23,2.34-.85,3.26-.31.46-.7.84-1.15,1.11-.46.27-1,.46-1.52.5-.52.05-1.05-.03-1.53-.24-.48-.21-.92-.55-1.25-.98-.67-.85-.87-2.11-.34-3.13.13-.26.3-.5.51-.71.2-.22.44-.4.71-.55.26-.15.56-.25.86-.28.15-.01.31-.01.47.01.15.03.31.08.45.16-.12-.11-.26-.21-.42-.28-.16-.07-.33-.11-.5-.13-.35-.03-.7,0-1.04.12-.67.21-1.27.66-1.71,1.25-.43.59-.67,1.35-.67,2.1,0,.38.06.75.16,1.12.11.36.27.71.46,1.04.4.64.98,1.19,1.68,1.55.69.36,1.49.52,2.27.47.39-.02.77-.11,1.13-.22.37-.12.7-.26,1.04-.47.67-.4,1.23-.96,1.63-1.59.41-.63.68-1.33.83-2.04.15-.71.2-1.44.11-2.17-.05-.37-.13-.73-.23-1.08Z"/>
      <path class="cls-1" d="M15.17,40.84c.5-.78.83-1.66,1.05-2.56.22-.91.31-1.84.28-2.78-.02-.93-.15-1.86-.38-2.75-.23-.9-.54-1.77-.95-2.59.14.91.3,1.8.4,2.69.1.89.17,1.78.17,2.66,0,.89-.05,1.77-.16,2.65-.1.89-.26,1.77-.41,2.68Z"/>
    </g>
  </g>
</svg>