<?xml version="1.0" encoding="UTF-8"?>
<svg id="Layer_2" data-name="Layer 2" xmlns="http://www.w3.org/2000/svg" viewBox="0 0 26.93 24.36">
  <defs>
    <style>
      .cls-1 {
        fill: #7f8f7a;
      }
    </style>
  </defs>
  <g id="Layer_1-2" data-name="Layer 1">
    <path class="cls-1" d="m25.29,1.77c1.38.69,1.94,2.15,1.49,3.58-.63,2-2.76,3.62-4.52,4.69l-3.92,2.4c.62.38,1.33.3,1.95.62,1.85.95,2.82,2.97,2.52,5.04-.35,2.39-1.88,4.38-4.07,5.39-3.65,1.69-8.34.91-10.87-2.46-1.95.84-4.08.81-5.87-.25-1.46-.87-2.26-2.5-1.92-4.15.12-.6.52-1.08,1.15-1.18-.03,1.36.31,2.63,1.15,3.69,1.23,1.56,3.3,2.03,5.06,1.11-.06-.62-.29-1.1-.42-1.65-.86-3.58.69-7.53,4.32-8.9.53-.2,1.04-.24,1.64-.55-1.23-1.16-1.79-2.66-1.52-4.27.36-2.21,1.96-3.93,4.12-4.54,1.47-.42,2.98-.49,4.42,0,1,.33,1.87.98,2.28,1.96.48,1.16,0,2.42-.99,3.17-.63.48-1.38.76-2.27.54-.56-.14-1.32-.62-1.61-1.33.54-.18.73.23,1.05.47.98.74,2.44.37,3.07-.61.67-1.05.45-2.52-.74-3.13-.99-.51-2.21-.46-3.26-.03-2.49,1.01-3.78,3.77-3.07,6.34.39,1.4,1.35,1.43,2.22,2.34-.5.13-.95.17-1.42.24-1.73.28-3.07,1.32-3.86,2.88-.77,1.52-1.1,3.27-.49,4.93.55-.44,1.1-.86,1.68-1.13s.58-.6.64-1.16c.26-2.3,3.22-4.23,5.13-5.2l4.51-2.29c.98-.5,1.83-1.07,2.61-1.83,1.04-1.02,1.24-2.58.32-3.73-.23-.29-.57-.52-.52-.99Zm-12.03,15.39c-.96.58-1.51,1.13-2.16,1.72,0,.56.31.93.58,1.37,1.86,3.01,5.9,3.7,8.62,1.44,1.38-1.15,2.02-2.79,1.9-4.58-.14-2.16-1.84-3.8-4.05-3.8-1.44,0-2.72.92-3.04,2.32l1.53-.43c1.39-.39,2.9.44,3.32,1.86.34,1.13-.33,2.25-1.36,2.73-.75.35-1.57.34-2.38.22-1.57-.23-2.53-1.33-2.98-2.86Zm2.43,2c.89.68,2.21.61,3.03-.07.75-.63.83-1.65.42-2.47-.38-.74-1.23-1.16-2.14-1.09-.78.06-1.43.46-2.13.85-.2.99-.06,2.1.83,2.78Z"/>
  </g>
</svg>